<mxfile host="Electron" modified="2024-02-22T09:16:11.685Z" agent="Mozilla/5.0 (Windows NT 10.0; Win64; x64) AppleWebKit/537.36 (KHTML, like Gecko) draw.io/23.1.5 Chrome/120.0.6099.109 Electron/28.1.0 Safari/537.36" etag="4dJ9aeWeBeArXryYe-qD" version="23.1.5" type="device" pages="2">
  <diagram name="General Gameplay Flow" id="GQaINYu1F7DMCniNsT3u">
    <mxGraphModel dx="1356" dy="868" grid="1" gridSize="10" guides="1" tooltips="1" connect="1" arrows="1" fold="1" page="1" pageScale="1" pageWidth="850" pageHeight="1100" math="0" shadow="0">
      <root>
        <mxCell id="0" />
        <mxCell id="1" parent="0" />
        <mxCell id="NltZi-5KqHfiD_aQ_rF9-3" style="edgeStyle=orthogonalEdgeStyle;rounded=0;orthogonalLoop=1;jettySize=auto;html=1;exitX=0.5;exitY=1;exitDx=0;exitDy=0;entryX=0.5;entryY=0;entryDx=0;entryDy=0;" parent="1" source="NltZi-5KqHfiD_aQ_rF9-1" target="NltZi-5KqHfiD_aQ_rF9-2" edge="1">
          <mxGeometry relative="1" as="geometry" />
        </mxCell>
        <mxCell id="NltZi-5KqHfiD_aQ_rF9-1" value="Enter game" style="rounded=1;whiteSpace=wrap;html=1;fillColor=#fff2cc;strokeColor=#d6b656;" parent="1" vertex="1">
          <mxGeometry x="209.91" y="50" width="120" height="60" as="geometry" />
        </mxCell>
        <mxCell id="NltZi-5KqHfiD_aQ_rF9-5" style="edgeStyle=orthogonalEdgeStyle;rounded=0;orthogonalLoop=1;jettySize=auto;html=1;exitX=0.5;exitY=1;exitDx=0;exitDy=0;entryX=0.5;entryY=0;entryDx=0;entryDy=0;" parent="1" source="NltZi-5KqHfiD_aQ_rF9-2" target="NltZi-5KqHfiD_aQ_rF9-4" edge="1">
          <mxGeometry relative="1" as="geometry" />
        </mxCell>
        <mxCell id="NltZi-5KqHfiD_aQ_rF9-29" style="edgeStyle=orthogonalEdgeStyle;rounded=0;orthogonalLoop=1;jettySize=auto;html=1;exitX=1;exitY=0.25;exitDx=0;exitDy=0;entryX=0;entryY=0.75;entryDx=0;entryDy=0;" parent="1" source="NltZi-5KqHfiD_aQ_rF9-2" target="NltZi-5KqHfiD_aQ_rF9-28" edge="1">
          <mxGeometry relative="1" as="geometry" />
        </mxCell>
        <mxCell id="NltZi-5KqHfiD_aQ_rF9-51" style="edgeStyle=orthogonalEdgeStyle;rounded=0;orthogonalLoop=1;jettySize=auto;html=1;exitX=1;exitY=0.5;exitDx=0;exitDy=0;entryX=0;entryY=0.5;entryDx=0;entryDy=0;" parent="1" source="NltZi-5KqHfiD_aQ_rF9-2" target="NltZi-5KqHfiD_aQ_rF9-46" edge="1">
          <mxGeometry relative="1" as="geometry">
            <Array as="points">
              <mxPoint x="369.90999999999997" y="210" />
              <mxPoint x="369.90999999999997" y="150" />
            </Array>
          </mxGeometry>
        </mxCell>
        <mxCell id="NltZi-5KqHfiD_aQ_rF9-57" style="edgeStyle=orthogonalEdgeStyle;rounded=0;orthogonalLoop=1;jettySize=auto;html=1;exitX=1;exitY=0.75;exitDx=0;exitDy=0;entryX=0;entryY=0.5;entryDx=0;entryDy=0;" parent="1" source="NltZi-5KqHfiD_aQ_rF9-2" target="NltZi-5KqHfiD_aQ_rF9-56" edge="1">
          <mxGeometry relative="1" as="geometry">
            <Array as="points">
              <mxPoint x="400" y="225" />
            </Array>
          </mxGeometry>
        </mxCell>
        <mxCell id="NltZi-5KqHfiD_aQ_rF9-2" value="Enter player&#39;s base" style="rounded=1;whiteSpace=wrap;html=1;fillColor=#fff2cc;strokeColor=#d6b656;" parent="1" vertex="1">
          <mxGeometry x="209.91" y="180" width="120" height="60" as="geometry" />
        </mxCell>
        <mxCell id="NltZi-5KqHfiD_aQ_rF9-48" style="edgeStyle=orthogonalEdgeStyle;rounded=0;orthogonalLoop=1;jettySize=auto;html=1;exitX=0.5;exitY=1;exitDx=0;exitDy=0;entryX=0.5;entryY=0;entryDx=0;entryDy=0;" parent="1" source="NltZi-5KqHfiD_aQ_rF9-4" target="NltZi-5KqHfiD_aQ_rF9-31" edge="1">
          <mxGeometry relative="1" as="geometry">
            <mxPoint x="269.9100000000001" y="380" as="targetPoint" />
          </mxGeometry>
        </mxCell>
        <mxCell id="TrvFIHiJgjhKBybTkbJB-2" style="edgeStyle=orthogonalEdgeStyle;rounded=0;orthogonalLoop=1;jettySize=auto;html=1;exitX=0.75;exitY=1;exitDx=0;exitDy=0;entryX=0.5;entryY=0;entryDx=0;entryDy=0;" edge="1" parent="1" source="NltZi-5KqHfiD_aQ_rF9-4" target="TrvFIHiJgjhKBybTkbJB-1">
          <mxGeometry relative="1" as="geometry" />
        </mxCell>
        <mxCell id="NltZi-5KqHfiD_aQ_rF9-4" value="Move to hunting zone" style="rounded=1;whiteSpace=wrap;html=1;fillColor=#fff2cc;strokeColor=#d6b656;" parent="1" vertex="1">
          <mxGeometry x="209.91" y="280" width="120" height="60" as="geometry" />
        </mxCell>
        <mxCell id="NltZi-5KqHfiD_aQ_rF9-28" value="Improve player permanent stat through &lt;b&gt;coin + material&lt;/b&gt;" style="rounded=1;whiteSpace=wrap;html=1;" parent="1" vertex="1">
          <mxGeometry x="399.90999999999997" y="50" width="120" height="60" as="geometry" />
        </mxCell>
        <mxCell id="TrvFIHiJgjhKBybTkbJB-12" style="edgeStyle=orthogonalEdgeStyle;rounded=0;orthogonalLoop=1;jettySize=auto;html=1;exitX=0;exitY=0.5;exitDx=0;exitDy=0;entryX=0;entryY=0.5;entryDx=0;entryDy=0;" edge="1" parent="1" source="NltZi-5KqHfiD_aQ_rF9-31" target="NltZi-5KqHfiD_aQ_rF9-33">
          <mxGeometry relative="1" as="geometry" />
        </mxCell>
        <mxCell id="NltZi-5KqHfiD_aQ_rF9-31" value="Kill zombie" style="rounded=1;whiteSpace=wrap;html=1;fillColor=#fff2cc;strokeColor=#d6b656;" parent="1" vertex="1">
          <mxGeometry x="209.90999999999997" y="380" width="120" height="60" as="geometry" />
        </mxCell>
        <mxCell id="TrvFIHiJgjhKBybTkbJB-14" style="edgeStyle=orthogonalEdgeStyle;rounded=0;orthogonalLoop=1;jettySize=auto;html=1;exitX=0.5;exitY=1;exitDx=0;exitDy=0;entryX=0.5;entryY=0;entryDx=0;entryDy=0;" edge="1" parent="1" source="NltZi-5KqHfiD_aQ_rF9-33" target="NltZi-5KqHfiD_aQ_rF9-41">
          <mxGeometry relative="1" as="geometry" />
        </mxCell>
        <mxCell id="TrvFIHiJgjhKBybTkbJB-15" style="edgeStyle=orthogonalEdgeStyle;rounded=0;orthogonalLoop=1;jettySize=auto;html=1;exitX=1;exitY=0.5;exitDx=0;exitDy=0;entryX=1;entryY=0.5;entryDx=0;entryDy=0;" edge="1" parent="1" source="NltZi-5KqHfiD_aQ_rF9-33" target="NltZi-5KqHfiD_aQ_rF9-4">
          <mxGeometry relative="1" as="geometry">
            <Array as="points">
              <mxPoint x="570" y="740" />
              <mxPoint x="570" y="310" />
            </Array>
          </mxGeometry>
        </mxCell>
        <mxCell id="NltZi-5KqHfiD_aQ_rF9-33" value="Obtain loot (&lt;b&gt;exp, material, coin, token&lt;/b&gt;)" style="rounded=1;whiteSpace=wrap;html=1;fillColor=#fff2cc;strokeColor=#d6b656;" parent="1" vertex="1">
          <mxGeometry x="209.90999999999997" y="710" width="120" height="60" as="geometry" />
        </mxCell>
        <mxCell id="TrvFIHiJgjhKBybTkbJB-13" style="edgeStyle=orthogonalEdgeStyle;rounded=0;orthogonalLoop=1;jettySize=auto;html=1;exitX=0.5;exitY=1;exitDx=0;exitDy=0;entryX=0.5;entryY=0;entryDx=0;entryDy=0;" edge="1" parent="1" source="NltZi-5KqHfiD_aQ_rF9-36" target="NltZi-5KqHfiD_aQ_rF9-33">
          <mxGeometry relative="1" as="geometry" />
        </mxCell>
        <mxCell id="NltZi-5KqHfiD_aQ_rF9-36" value="Distribute Loot" style="rounded=1;whiteSpace=wrap;html=1;fillColor=#fff2cc;strokeColor=#d6b656;" parent="1" vertex="1">
          <mxGeometry x="209.91" y="610" width="120" height="60" as="geometry" />
        </mxCell>
        <mxCell id="NltZi-5KqHfiD_aQ_rF9-59" style="edgeStyle=orthogonalEdgeStyle;rounded=0;orthogonalLoop=1;jettySize=auto;html=1;exitX=0.5;exitY=1;exitDx=0;exitDy=0;" parent="1" source="NltZi-5KqHfiD_aQ_rF9-41" target="NltZi-5KqHfiD_aQ_rF9-42" edge="1">
          <mxGeometry relative="1" as="geometry" />
        </mxCell>
        <mxCell id="NltZi-5KqHfiD_aQ_rF9-41" value="Level Up" style="rounded=1;whiteSpace=wrap;html=1;fillColor=#fff2cc;strokeColor=#d6b656;" parent="1" vertex="1">
          <mxGeometry x="209.91" y="810" width="120" height="60" as="geometry" />
        </mxCell>
        <mxCell id="NltZi-5KqHfiD_aQ_rF9-42" value="Player choose skill" style="rounded=1;whiteSpace=wrap;html=1;" parent="1" vertex="1">
          <mxGeometry x="209.91" y="920" width="120" height="60" as="geometry" />
        </mxCell>
        <mxCell id="NltZi-5KqHfiD_aQ_rF9-46" value="Buy pet randomly using &lt;b&gt;coin&lt;/b&gt;" style="rounded=1;whiteSpace=wrap;html=1;" parent="1" vertex="1">
          <mxGeometry x="399.90999999999997" y="120" width="120" height="60" as="geometry" />
        </mxCell>
        <mxCell id="NltZi-5KqHfiD_aQ_rF9-55" style="edgeStyle=orthogonalEdgeStyle;rounded=0;orthogonalLoop=1;jettySize=auto;html=1;exitX=1;exitY=0.5;exitDx=0;exitDy=0;entryX=0;entryY=0.5;entryDx=0;entryDy=0;" parent="1" source="NltZi-5KqHfiD_aQ_rF9-52" target="NltZi-5KqHfiD_aQ_rF9-54" edge="1">
          <mxGeometry relative="1" as="geometry" />
        </mxCell>
        <mxCell id="r1JnfOzDvC1o5l4QeHb9-7" style="edgeStyle=orthogonalEdgeStyle;rounded=0;orthogonalLoop=1;jettySize=auto;html=1;exitX=1;exitY=0.75;exitDx=0;exitDy=0;entryX=0;entryY=0.25;entryDx=0;entryDy=0;" parent="1" source="NltZi-5KqHfiD_aQ_rF9-52" target="r1JnfOzDvC1o5l4QeHb9-6" edge="1">
          <mxGeometry relative="1" as="geometry">
            <Array as="points">
              <mxPoint x="670" y="165" />
              <mxPoint x="670" y="205" />
            </Array>
          </mxGeometry>
        </mxCell>
        <mxCell id="NltZi-5KqHfiD_aQ_rF9-52" value="Assign pet to facility" style="rounded=1;whiteSpace=wrap;html=1;" parent="1" vertex="1">
          <mxGeometry x="540" y="120" width="120" height="60" as="geometry" />
        </mxCell>
        <mxCell id="NltZi-5KqHfiD_aQ_rF9-53" style="edgeStyle=orthogonalEdgeStyle;rounded=0;orthogonalLoop=1;jettySize=auto;html=1;exitX=1;exitY=0.5;exitDx=0;exitDy=0;entryX=0;entryY=0.5;entryDx=0;entryDy=0;" parent="1" source="NltZi-5KqHfiD_aQ_rF9-46" target="NltZi-5KqHfiD_aQ_rF9-52" edge="1">
          <mxGeometry relative="1" as="geometry" />
        </mxCell>
        <mxCell id="NltZi-5KqHfiD_aQ_rF9-54" value="Obtain &lt;b&gt;coin &lt;/b&gt;passively" style="rounded=1;whiteSpace=wrap;html=1;" parent="1" vertex="1">
          <mxGeometry x="680" y="120" width="120" height="60" as="geometry" />
        </mxCell>
        <mxCell id="NltZi-5KqHfiD_aQ_rF9-56" value="Build facility through &lt;b&gt;material &lt;/b&gt;and&lt;b&gt;&amp;nbsp;coin&lt;/b&gt;" style="rounded=1;whiteSpace=wrap;html=1;" parent="1" vertex="1">
          <mxGeometry x="409.99999999999994" y="190" width="120" height="60" as="geometry" />
        </mxCell>
        <mxCell id="r1JnfOzDvC1o5l4QeHb9-1" value="" style="rounded=1;whiteSpace=wrap;html=1;fillColor=#fff2cc;strokeColor=#d6b656;" parent="1" vertex="1">
          <mxGeometry x="655" y="1035" width="80" height="20" as="geometry" />
        </mxCell>
        <mxCell id="r1JnfOzDvC1o5l4QeHb9-2" value="Core" style="text;html=1;align=center;verticalAlign=middle;resizable=0;points=[];autosize=1;strokeColor=none;fillColor=none;" parent="1" vertex="1">
          <mxGeometry x="745" y="1030" width="50" height="30" as="geometry" />
        </mxCell>
        <mxCell id="r1JnfOzDvC1o5l4QeHb9-3" value="" style="rounded=1;whiteSpace=wrap;html=1;" parent="1" vertex="1">
          <mxGeometry x="655" y="1065" width="80" height="20" as="geometry" />
        </mxCell>
        <mxCell id="r1JnfOzDvC1o5l4QeHb9-4" value="Additional" style="text;html=1;align=center;verticalAlign=middle;resizable=0;points=[];autosize=1;strokeColor=none;fillColor=none;" parent="1" vertex="1">
          <mxGeometry x="745" y="1060" width="80" height="30" as="geometry" />
        </mxCell>
        <mxCell id="r1JnfOzDvC1o5l4QeHb9-5" value="&lt;b&gt;Legend&lt;/b&gt;" style="text;html=1;align=center;verticalAlign=middle;resizable=0;points=[];autosize=1;strokeColor=none;fillColor=none;" parent="1" vertex="1">
          <mxGeometry x="640" y="1000" width="70" height="30" as="geometry" />
        </mxCell>
        <mxCell id="r1JnfOzDvC1o5l4QeHb9-6" value="Obtain &lt;b&gt;material &lt;/b&gt;passively" style="rounded=1;whiteSpace=wrap;html=1;" parent="1" vertex="1">
          <mxGeometry x="680" y="190" width="120" height="60" as="geometry" />
        </mxCell>
        <mxCell id="TrvFIHiJgjhKBybTkbJB-4" style="edgeStyle=orthogonalEdgeStyle;rounded=0;orthogonalLoop=1;jettySize=auto;html=1;exitX=0.5;exitY=1;exitDx=0;exitDy=0;entryX=0.5;entryY=0;entryDx=0;entryDy=0;" edge="1" parent="1" source="TrvFIHiJgjhKBybTkbJB-1" target="TrvFIHiJgjhKBybTkbJB-5">
          <mxGeometry relative="1" as="geometry">
            <mxPoint x="460" y="480" as="targetPoint" />
          </mxGeometry>
        </mxCell>
        <mxCell id="TrvFIHiJgjhKBybTkbJB-1" value="Fight world boss" style="rounded=1;whiteSpace=wrap;html=1;fillColor=#fff2cc;strokeColor=#d6b656;" vertex="1" parent="1">
          <mxGeometry x="350" y="380" width="120" height="60" as="geometry" />
        </mxCell>
        <mxCell id="TrvFIHiJgjhKBybTkbJB-11" style="edgeStyle=orthogonalEdgeStyle;rounded=0;orthogonalLoop=1;jettySize=auto;html=1;exitX=0;exitY=0.5;exitDx=0;exitDy=0;entryX=1;entryY=0.5;entryDx=0;entryDy=0;" edge="1" parent="1" source="TrvFIHiJgjhKBybTkbJB-3" target="NltZi-5KqHfiD_aQ_rF9-36">
          <mxGeometry relative="1" as="geometry" />
        </mxCell>
        <mxCell id="TrvFIHiJgjhKBybTkbJB-3" value="Measure contribution" style="rounded=1;whiteSpace=wrap;html=1;fillColor=#fff2cc;strokeColor=#d6b656;" vertex="1" parent="1">
          <mxGeometry x="350" y="610" width="120" height="60" as="geometry" />
        </mxCell>
        <mxCell id="TrvFIHiJgjhKBybTkbJB-6" style="edgeStyle=orthogonalEdgeStyle;rounded=0;orthogonalLoop=1;jettySize=auto;html=1;exitX=0.5;exitY=1;exitDx=0;exitDy=0;entryX=0.5;entryY=0;entryDx=0;entryDy=0;" edge="1" parent="1" source="TrvFIHiJgjhKBybTkbJB-5" target="TrvFIHiJgjhKBybTkbJB-3">
          <mxGeometry relative="1" as="geometry" />
        </mxCell>
        <mxCell id="TrvFIHiJgjhKBybTkbJB-9" style="edgeStyle=orthogonalEdgeStyle;rounded=0;orthogonalLoop=1;jettySize=auto;html=1;exitX=1;exitY=0.5;exitDx=0;exitDy=0;entryX=1;entryY=0.5;entryDx=0;entryDy=0;" edge="1" parent="1" source="TrvFIHiJgjhKBybTkbJB-5" target="TrvFIHiJgjhKBybTkbJB-1">
          <mxGeometry relative="1" as="geometry">
            <Array as="points">
              <mxPoint x="520" y="530" />
              <mxPoint x="520" y="410" />
            </Array>
          </mxGeometry>
        </mxCell>
        <mxCell id="TrvFIHiJgjhKBybTkbJB-5" value="Is World boss defeated" style="rhombus;whiteSpace=wrap;html=1;fillColor=#fff2cc;strokeColor=#d6b656;" vertex="1" parent="1">
          <mxGeometry x="370" y="490" width="80" height="80" as="geometry" />
        </mxCell>
        <mxCell id="TrvFIHiJgjhKBybTkbJB-8" value="Yes" style="text;html=1;align=center;verticalAlign=middle;resizable=0;points=[];autosize=1;strokeColor=none;fillColor=none;" vertex="1" parent="1">
          <mxGeometry x="415" y="570" width="40" height="30" as="geometry" />
        </mxCell>
        <mxCell id="TrvFIHiJgjhKBybTkbJB-10" value="No" style="text;html=1;align=center;verticalAlign=middle;resizable=0;points=[];autosize=1;strokeColor=none;fillColor=none;" vertex="1" parent="1">
          <mxGeometry x="455" y="500" width="40" height="30" as="geometry" />
        </mxCell>
      </root>
    </mxGraphModel>
  </diagram>
  <diagram id="NML-aWaijd9kwEdyguYJ" name="Stage System Flow">
    <mxGraphModel dx="1179" dy="755" grid="1" gridSize="10" guides="1" tooltips="1" connect="1" arrows="1" fold="1" page="1" pageScale="1" pageWidth="850" pageHeight="1100" math="0" shadow="0">
      <root>
        <mxCell id="0" />
        <mxCell id="1" parent="0" />
        <mxCell id="4iMG0KF7WGyL3Zj-781T-1" value="TriggerStageSelection" style="swimlane;whiteSpace=wrap;html=1;" vertex="1" parent="1">
          <mxGeometry x="20" y="110" width="200" height="900" as="geometry" />
        </mxCell>
        <mxCell id="4iMG0KF7WGyL3Zj-781T-25" style="edgeStyle=orthogonalEdgeStyle;rounded=0;orthogonalLoop=1;jettySize=auto;html=1;exitX=0;exitY=0.5;exitDx=0;exitDy=0;entryX=0;entryY=0.5;entryDx=0;entryDy=0;" edge="1" parent="4iMG0KF7WGyL3Zj-781T-1" source="4iMG0KF7WGyL3Zj-781T-16" target="4iMG0KF7WGyL3Zj-781T-24">
          <mxGeometry relative="1" as="geometry">
            <Array as="points">
              <mxPoint x="20" y="110" />
              <mxPoint x="20" y="790" />
            </Array>
          </mxGeometry>
        </mxCell>
        <mxCell id="4iMG0KF7WGyL3Zj-781T-16" value="Enter Trigger" style="rhombus;whiteSpace=wrap;html=1;fontColor=#000000;fillColor=#ffffc0;strokeColor=#ff0000;" vertex="1" parent="4iMG0KF7WGyL3Zj-781T-1">
          <mxGeometry x="60" y="90" width="80" height="40" as="geometry" />
        </mxCell>
        <mxCell id="4iMG0KF7WGyL3Zj-781T-21" value="Yes" style="text;html=1;align=center;verticalAlign=middle;resizable=0;points=[];autosize=1;strokeColor=none;fillColor=none;" vertex="1" parent="4iMG0KF7WGyL3Zj-781T-1">
          <mxGeometry x="100" y="140" width="40" height="30" as="geometry" />
        </mxCell>
        <mxCell id="4iMG0KF7WGyL3Zj-781T-26" value="No" style="text;html=1;align=center;verticalAlign=middle;resizable=0;points=[];autosize=1;strokeColor=none;fillColor=none;" vertex="1" parent="4iMG0KF7WGyL3Zj-781T-1">
          <mxGeometry x="20" y="80" width="40" height="30" as="geometry" />
        </mxCell>
        <mxCell id="4iMG0KF7WGyL3Zj-781T-31" style="edgeStyle=orthogonalEdgeStyle;rounded=0;orthogonalLoop=1;jettySize=auto;html=1;exitX=0.5;exitY=1;exitDx=0;exitDy=0;entryX=0.5;entryY=0;entryDx=0;entryDy=0;" edge="1" parent="4iMG0KF7WGyL3Zj-781T-1" source="4iMG0KF7WGyL3Zj-781T-29" target="4iMG0KF7WGyL3Zj-781T-16">
          <mxGeometry relative="1" as="geometry" />
        </mxCell>
        <mxCell id="4iMG0KF7WGyL3Zj-781T-29" value="" style="ellipse;html=1;shape=startState;fillColor=#000000;strokeColor=#ff0000;" vertex="1" parent="4iMG0KF7WGyL3Zj-781T-1">
          <mxGeometry x="85" y="30" width="30" height="30" as="geometry" />
        </mxCell>
        <mxCell id="4iMG0KF7WGyL3Zj-781T-24" value="OnExit" style="rounded=1;whiteSpace=wrap;html=1;arcSize=40;fontColor=#000000;fillColor=#ffffc0;strokeColor=#ff0000;" vertex="1" parent="4iMG0KF7WGyL3Zj-781T-1">
          <mxGeometry x="50" y="770" width="120" height="40" as="geometry" />
        </mxCell>
        <mxCell id="4iMG0KF7WGyL3Zj-781T-27" value="EndStageSelection" style="rounded=1;whiteSpace=wrap;html=1;arcSize=40;fontColor=#000000;fillColor=#ffffc0;strokeColor=#ff0000;" vertex="1" parent="4iMG0KF7WGyL3Zj-781T-1">
          <mxGeometry x="240" y="770" width="120" height="40" as="geometry" />
        </mxCell>
        <mxCell id="4iMG0KF7WGyL3Zj-781T-28" style="edgeStyle=orthogonalEdgeStyle;rounded=0;orthogonalLoop=1;jettySize=auto;html=1;exitX=1;exitY=0.5;exitDx=0;exitDy=0;entryX=0;entryY=0.5;entryDx=0;entryDy=0;" edge="1" parent="4iMG0KF7WGyL3Zj-781T-1" source="4iMG0KF7WGyL3Zj-781T-24" target="4iMG0KF7WGyL3Zj-781T-27">
          <mxGeometry relative="1" as="geometry" />
        </mxCell>
        <mxCell id="4iMG0KF7WGyL3Zj-781T-2" value="PlayerStageSelection" style="swimlane;whiteSpace=wrap;html=1;" vertex="1" parent="1">
          <mxGeometry x="220" y="110" width="200" height="900" as="geometry" />
        </mxCell>
        <mxCell id="4iMG0KF7WGyL3Zj-781T-5" value="OnEnter" style="rounded=1;whiteSpace=wrap;html=1;arcSize=40;fontColor=#000000;fillColor=#ffffc0;strokeColor=#ff0000;" vertex="1" parent="4iMG0KF7WGyL3Zj-781T-2">
          <mxGeometry x="-160" y="180" width="120" height="40" as="geometry" />
        </mxCell>
        <mxCell id="4iMG0KF7WGyL3Zj-781T-11" style="edgeStyle=orthogonalEdgeStyle;rounded=0;orthogonalLoop=1;jettySize=auto;html=1;exitX=0.5;exitY=1;exitDx=0;exitDy=0;" edge="1" parent="4iMG0KF7WGyL3Zj-781T-2" source="4iMG0KF7WGyL3Zj-781T-8" target="4iMG0KF7WGyL3Zj-781T-10">
          <mxGeometry relative="1" as="geometry" />
        </mxCell>
        <mxCell id="4iMG0KF7WGyL3Zj-781T-8" value="BeginStageSelection" style="rounded=1;whiteSpace=wrap;html=1;arcSize=40;fontColor=#000000;fillColor=#ffffc0;strokeColor=#ff0000;" vertex="1" parent="4iMG0KF7WGyL3Zj-781T-2">
          <mxGeometry x="40" y="180" width="120" height="40" as="geometry" />
        </mxCell>
        <mxCell id="4iMG0KF7WGyL3Zj-781T-13" style="edgeStyle=orthogonalEdgeStyle;rounded=0;orthogonalLoop=1;jettySize=auto;html=1;exitX=0.5;exitY=1;exitDx=0;exitDy=0;" edge="1" parent="4iMG0KF7WGyL3Zj-781T-2" source="4iMG0KF7WGyL3Zj-781T-10" target="4iMG0KF7WGyL3Zj-781T-12">
          <mxGeometry relative="1" as="geometry" />
        </mxCell>
        <mxCell id="4iMG0KF7WGyL3Zj-781T-10" value="InitStageSelection" style="rounded=1;whiteSpace=wrap;html=1;arcSize=40;fontColor=#000000;fillColor=#ffffc0;strokeColor=#ff0000;" vertex="1" parent="4iMG0KF7WGyL3Zj-781T-2">
          <mxGeometry x="40" y="250" width="120" height="40" as="geometry" />
        </mxCell>
        <mxCell id="4iMG0KF7WGyL3Zj-781T-12" value="ResetStageSelection" style="rounded=1;whiteSpace=wrap;html=1;arcSize=40;fontColor=#000000;fillColor=#ffffc0;strokeColor=#ff0000;" vertex="1" parent="4iMG0KF7WGyL3Zj-781T-2">
          <mxGeometry x="40" y="320" width="120" height="40" as="geometry" />
        </mxCell>
        <mxCell id="4iMG0KF7WGyL3Zj-781T-9" style="edgeStyle=orthogonalEdgeStyle;rounded=0;orthogonalLoop=1;jettySize=auto;html=1;exitX=1;exitY=0.5;exitDx=0;exitDy=0;entryX=0;entryY=0.5;entryDx=0;entryDy=0;" edge="1" parent="4iMG0KF7WGyL3Zj-781T-2" source="4iMG0KF7WGyL3Zj-781T-5" target="4iMG0KF7WGyL3Zj-781T-8">
          <mxGeometry relative="1" as="geometry" />
        </mxCell>
        <mxCell id="4iMG0KF7WGyL3Zj-781T-35" value="SetSelectedStage" style="rounded=1;whiteSpace=wrap;html=1;arcSize=40;fontColor=#000000;fillColor=#ffffc0;strokeColor=#ff0000;" vertex="1" parent="4iMG0KF7WGyL3Zj-781T-2">
          <mxGeometry x="40" y="400" width="120" height="40" as="geometry" />
        </mxCell>
        <mxCell id="4iMG0KF7WGyL3Zj-781T-49" style="edgeStyle=orthogonalEdgeStyle;rounded=0;orthogonalLoop=1;jettySize=auto;html=1;exitX=0.5;exitY=1;exitDx=0;exitDy=0;" edge="1" parent="4iMG0KF7WGyL3Zj-781T-2" source="4iMG0KF7WGyL3Zj-781T-39">
          <mxGeometry relative="1" as="geometry">
            <mxPoint x="100" y="770" as="targetPoint" />
          </mxGeometry>
        </mxCell>
        <mxCell id="4iMG0KF7WGyL3Zj-781T-39" value="ConfirmStageSelection" style="rounded=1;whiteSpace=wrap;html=1;arcSize=40;fontColor=#000000;fillColor=#ffffc0;strokeColor=#ff0000;" vertex="1" parent="4iMG0KF7WGyL3Zj-781T-2">
          <mxGeometry x="40" y="470" width="120" height="40" as="geometry" />
        </mxCell>
        <mxCell id="4iMG0KF7WGyL3Zj-781T-3" value="PlayerStageSelectionHUD" style="swimlane;whiteSpace=wrap;html=1;" vertex="1" parent="1">
          <mxGeometry x="420" y="110" width="200" height="900" as="geometry" />
        </mxCell>
        <mxCell id="4iMG0KF7WGyL3Zj-781T-43" value="CloseStageSelectionHUD" style="rounded=1;whiteSpace=wrap;html=1;arcSize=40;fontColor=#000000;fillColor=#ffffc0;strokeColor=#ff0000;" vertex="1" parent="4iMG0KF7WGyL3Zj-781T-3">
          <mxGeometry x="20" y="770" width="150" height="40" as="geometry" />
        </mxCell>
        <mxCell id="4iMG0KF7WGyL3Zj-781T-14" value="DisplayStageSelectionHUD" style="rounded=1;whiteSpace=wrap;html=1;arcSize=40;fontColor=#000000;fillColor=#ffffc0;strokeColor=#ff0000;" vertex="1" parent="4iMG0KF7WGyL3Zj-781T-3">
          <mxGeometry x="30" y="320" width="160" height="40" as="geometry" />
        </mxCell>
        <mxCell id="4iMG0KF7WGyL3Zj-781T-4" value="" style="ellipse;html=1;shape=endState;fillColor=#000000;strokeColor=#ff0000;" vertex="1" parent="4iMG0KF7WGyL3Zj-781T-3">
          <mxGeometry x="80" y="860" width="30" height="30" as="geometry" />
        </mxCell>
        <mxCell id="4iMG0KF7WGyL3Zj-781T-38" style="edgeStyle=orthogonalEdgeStyle;rounded=0;orthogonalLoop=1;jettySize=auto;html=1;exitX=0.5;exitY=1;exitDx=0;exitDy=0;entryX=0.5;entryY=0;entryDx=0;entryDy=0;" edge="1" parent="4iMG0KF7WGyL3Zj-781T-3" source="4iMG0KF7WGyL3Zj-781T-43" target="4iMG0KF7WGyL3Zj-781T-4">
          <mxGeometry relative="1" as="geometry" />
        </mxCell>
        <mxCell id="4iMG0KF7WGyL3Zj-781T-20" style="edgeStyle=orthogonalEdgeStyle;rounded=0;orthogonalLoop=1;jettySize=auto;html=1;exitX=0.5;exitY=1;exitDx=0;exitDy=0;entryX=0.5;entryY=0;entryDx=0;entryDy=0;" edge="1" parent="1" source="4iMG0KF7WGyL3Zj-781T-16" target="4iMG0KF7WGyL3Zj-781T-5">
          <mxGeometry relative="1" as="geometry" />
        </mxCell>
        <mxCell id="4iMG0KF7WGyL3Zj-781T-22" value="HUDStageSelection" style="swimlane;whiteSpace=wrap;html=1;" vertex="1" parent="1">
          <mxGeometry x="620" y="110" width="200" height="900" as="geometry" />
        </mxCell>
        <mxCell id="4iMG0KF7WGyL3Zj-781T-33" value="" style="rhombus;whiteSpace=wrap;html=1;fontColor=#000000;fillColor=#ffffc0;strokeColor=#ff0000;" vertex="1" parent="4iMG0KF7WGyL3Zj-781T-22">
          <mxGeometry x="50" y="320" width="80" height="40" as="geometry" />
        </mxCell>
        <mxCell id="4iMG0KF7WGyL3Zj-781T-37" value="SelectStage" style="text;html=1;align=center;verticalAlign=middle;resizable=0;points=[];autosize=1;strokeColor=none;fillColor=none;" vertex="1" parent="4iMG0KF7WGyL3Zj-781T-22">
          <mxGeometry y="390" width="90" height="30" as="geometry" />
        </mxCell>
        <mxCell id="4iMG0KF7WGyL3Zj-781T-41" value="Confirm" style="text;html=1;align=center;verticalAlign=middle;resizable=0;points=[];autosize=1;strokeColor=none;fillColor=none;" vertex="1" parent="4iMG0KF7WGyL3Zj-781T-22">
          <mxGeometry x="80" y="460" width="70" height="30" as="geometry" />
        </mxCell>
        <mxCell id="4iMG0KF7WGyL3Zj-781T-45" value="Exit" style="text;html=1;align=center;verticalAlign=middle;resizable=0;points=[];autosize=1;strokeColor=none;fillColor=none;" vertex="1" parent="4iMG0KF7WGyL3Zj-781T-22">
          <mxGeometry x="130" y="270" width="40" height="30" as="geometry" />
        </mxCell>
        <mxCell id="4iMG0KF7WGyL3Zj-781T-34" style="edgeStyle=orthogonalEdgeStyle;rounded=0;orthogonalLoop=1;jettySize=auto;html=1;exitX=1;exitY=0.5;exitDx=0;exitDy=0;entryX=-0.041;entryY=0.479;entryDx=0;entryDy=0;entryPerimeter=0;" edge="1" parent="1" source="4iMG0KF7WGyL3Zj-781T-14" target="4iMG0KF7WGyL3Zj-781T-33">
          <mxGeometry relative="1" as="geometry" />
        </mxCell>
        <mxCell id="4iMG0KF7WGyL3Zj-781T-36" style="edgeStyle=orthogonalEdgeStyle;rounded=0;orthogonalLoop=1;jettySize=auto;html=1;exitX=0.5;exitY=1;exitDx=0;exitDy=0;entryX=1;entryY=0.5;entryDx=0;entryDy=0;" edge="1" parent="1" source="4iMG0KF7WGyL3Zj-781T-33" target="4iMG0KF7WGyL3Zj-781T-35">
          <mxGeometry relative="1" as="geometry" />
        </mxCell>
        <mxCell id="4iMG0KF7WGyL3Zj-781T-40" style="edgeStyle=orthogonalEdgeStyle;rounded=0;orthogonalLoop=1;jettySize=auto;html=1;exitX=1;exitY=0.5;exitDx=0;exitDy=0;entryX=1;entryY=0.5;entryDx=0;entryDy=0;" edge="1" parent="1" source="4iMG0KF7WGyL3Zj-781T-33" target="4iMG0KF7WGyL3Zj-781T-39">
          <mxGeometry relative="1" as="geometry" />
        </mxCell>
        <mxCell id="4iMG0KF7WGyL3Zj-781T-15" style="edgeStyle=orthogonalEdgeStyle;rounded=0;orthogonalLoop=1;jettySize=auto;html=1;exitX=1;exitY=0.5;exitDx=0;exitDy=0;entryX=0;entryY=0.5;entryDx=0;entryDy=0;" edge="1" parent="1" source="4iMG0KF7WGyL3Zj-781T-12" target="4iMG0KF7WGyL3Zj-781T-14">
          <mxGeometry relative="1" as="geometry" />
        </mxCell>
        <mxCell id="4iMG0KF7WGyL3Zj-781T-46" style="edgeStyle=orthogonalEdgeStyle;rounded=0;orthogonalLoop=1;jettySize=auto;html=1;exitX=1;exitY=0.5;exitDx=0;exitDy=0;entryX=0;entryY=0.5;entryDx=0;entryDy=0;" edge="1" parent="1" source="4iMG0KF7WGyL3Zj-781T-27" target="4iMG0KF7WGyL3Zj-781T-43">
          <mxGeometry relative="1" as="geometry">
            <Array as="points">
              <mxPoint x="410" y="900" />
              <mxPoint x="410" y="900" />
            </Array>
          </mxGeometry>
        </mxCell>
        <mxCell id="4iMG0KF7WGyL3Zj-781T-48" style="edgeStyle=orthogonalEdgeStyle;rounded=0;orthogonalLoop=1;jettySize=auto;html=1;exitX=0.5;exitY=0;exitDx=0;exitDy=0;" edge="1" parent="1" source="4iMG0KF7WGyL3Zj-781T-33" target="4iMG0KF7WGyL3Zj-781T-27">
          <mxGeometry relative="1" as="geometry">
            <Array as="points">
              <mxPoint x="710" y="410" />
              <mxPoint x="800" y="410" />
              <mxPoint x="800" y="860" />
              <mxPoint x="320" y="860" />
            </Array>
          </mxGeometry>
        </mxCell>
      </root>
    </mxGraphModel>
  </diagram>
</mxfile>
